<svg xmlns="http://www.w3.org/2000/svg" width="20" height="20" viewBox="0 0 20 20">
    <g id="prefix__Group_156" data-name="Group 156" transform="translate(-915 -536)">
        <g id="prefix__Group_83" data-name="Group 83" transform="translate(689.8 -4.3)">
            <g id="prefix__Group_82" data-name="Group 82" transform="translate(225.2 545.3)">
                <path id="prefix__Path_48" d="M240.546 548.226c-4.419 0-4.478 4.419-4.478 4.478a4.118 4.118 0 004.478 4.419s3.583.179 3.941-2.627a.423.423 0 00-.418-.478h-1.254a.449.449 0 00-.418.3c-.119.358-.478.955-1.791.955a1.836 1.836 0 01-1.971-1.552.423.423 0 01.418-.478h5.195a.408.408 0 00.418-.418c-.059-1.136-.239-4.599-4.12-4.599zm-1.732 3.463c-.179 0-.3-.179-.239-.3a1.994 1.994 0 011.97-1.493 1.606 1.606 0 011.732 1.493c0 .119-.119.3-.239.3zm-5.314-1.015c-.119-.06-.179-.239-.06-.3a2.013 2.013 0 001.075-1.971 2.963 2.963 0 00-3.284-3.105H225.5a.282.282 0 00-.3.3v10.987a.282.282 0 00.3.3h5.732s3.7.12 3.7-3.4c.001-.064.121-2.273-1.432-2.811zm-5.613-3.105a.257.257 0 01.239-.239h3.165s.836 0 .836 1.194-.478 1.373-1.015 1.373h-2.926a.257.257 0 01-.239-.239v-2.09zm3.224 7.225h-2.986a.257.257 0 01-.239-.239v-2.687a.257.257 0 01.239-.239h3.165s1.254 0 1.194 1.612c.001 1.434-.895 1.553-1.372 1.553zm6.927-9.076v1.015a.257.257 0 00.239.239h4.359a.257.257 0 00.239-.239v-1.015a.257.257 0 00-.239-.239h-4.419c-.117.06-.179.121-.179.239z" data-name="Path 48" transform="translate(-225.2 -545.3)" style="fill:#fff"/>
            </g>
        </g>
        <path id="prefix__Rectangle_13" d="M0 0H20V20H0z" data-name="Rectangle 13" transform="translate(915 536)" style="fill:none;opacity:.2"/>
    </g>
</svg>
