<svg xmlns="http://www.w3.org/2000/svg" width="20" height="20" viewBox="0 0 20 20">
    <g id="prefix__Group_155" data-name="Group 155" transform="translate(-2436 338)">
        <path id="prefix__Path_30" d="M71.336 343.874a9.81 9.81 0 108.875 8.875 9.83 9.83 0 00-8.875-8.875zm5.6 4.944a8.094 8.094 0 011.608 4.408.158.158 0 01-.179.179 14.965 14.965 0 00-5.123-.179c-.06 0-.119 0-.179-.119l-.536-1.251a.114.114 0 01.06-.179 13.479 13.479 0 004.11-2.859.181.181 0 01.238 0zm-1.489-1.251a12.1 12.1 0 01-3.693 2.561.114.114 0 01-.179-.06 25.91 25.91 0 00-2.68-4.11.161.161 0 01.119-.238 11.566 11.566 0 011.43-.119 8.078 8.078 0 015 1.727.181.181 0 01.002.239zm-8.339-1.132a28.685 28.685 0 012.8 4.17c.06.06 0 .179-.06.238a27.849 27.849 0 01-7.029.953.19.19 0 01-.179-.179 8.12 8.12 0 014.289-5.182.112.112 0 01.178 0zm-4.587 7.088a30.7 30.7 0 008.16-1.191.219.219 0 01.179.06c.179.3.3.655.477 1.013.06.06 0 .179-.119.179a14.445 14.445 0 00-6.85 5.063.181.181 0 01-.238 0 7.914 7.914 0 01-1.787-5.063c.057.059.117-.061.177-.061zm3.1 6.433a12.73 12.73 0 016.254-4.646c.06 0 .179 0 .179.119a29.07 29.07 0 011.43 5.659c0 .06 0 .119-.119.179a8.043 8.043 0 01-2.978.6 8.136 8.136 0 01-4.765-1.549c-.005-.183-.064-.302-.005-.362zm9.471 0a29.964 29.964 0 00-1.31-4.944c-.06-.119 0-.179.119-.179a13.375 13.375 0 014.289.3c.06 0 .119.119.119.179a8.413 8.413 0 01-2.978 4.765c-.064.058-.183-.001-.243-.121z" data-name="Path 30" transform="translate(2375.365 -681.835)" style="fill:#fff"/>
        <path id="prefix__Rectangle_9" d="M0 0H20V20H0z" data-name="Rectangle 9" transform="translate(2436 -338)" style="fill:none"/>
    </g>
</svg>
