<svg xmlns="http://www.w3.org/2000/svg" id="prefix__search" width="20" height="20" viewBox="0 0 20 20">
    <path id="prefix__Path_81" d="M4.432 144.953l-.7 2.6-2.544.054a10.017 10.017 0 01-.074-9.338l2.265.415.992 2.252a5.968 5.968 0 00.056 4.018z" data-name="Path 81" transform="translate(0 -132.867)" style="fill:#fbbb00"/>
    <path id="prefix__Path_82" d="M271.233 208.176a10 10 0 01-3.565 9.666l-2.853-.146-.4-2.521a5.96 5.96 0 002.564-3.043h-5.347v-3.956h9.605z" data-name="Path 82" transform="translate(-251.408 -200.044)" style="fill:#518ef8"/>
    <path id="prefix__Path_83" d="M45.577 315.121a10 10 0 01-15.069-3.059l3.241-2.653a5.947 5.947 0 008.57 3.045z" data-name="Path 83" transform="translate(-29.317 -297.323)" style="fill:#28b446"/>
    <path id="prefix__Path_84" d="M43.889 2.3l-3.24 2.652a5.947 5.947 0 00-8.767 3.114L28.625 5.4a10 10 0 0115.264-3.1z" data-name="Path 84" transform="translate(-27.506)" style="fill:#f14336"/>
</svg>
