<svg xmlns="http://www.w3.org/2000/svg" width="20" height="20" viewBox="0 0 20 20">
    <path id="prefix__Path_16" d="M238.822 217.084a1.17 1.17 0 101.17 1.17 1.173 1.173 0 00-1.17-1.17zm-5.263 1.52a4.912 4.912 0 104.912 4.912 4.867 4.867 0 00-4.913-4.916zm0 8.07a3.158 3.158 0 113.158-3.158 3.145 3.145 0 01-3.159 3.159zm9.942-7.251a6.015 6.015 0 00-6.023-6.023h-7.953a6.015 6.015 0 00-6.023 6.023v7.953a6.015 6.015 0 006.023 6.023h7.953a6.015 6.015 0 006.023-6.023zm-1.871 7.953a4.168 4.168 0 01-4.152 4.152h-7.953a4.168 4.168 0 01-4.152-4.152v-7.953a4.168 4.168 0 014.152-4.152h7.953a4.168 4.168 0 014.152 4.152z" data-name="Path 16" transform="translate(-223.5 -213.4)" style="fill:#fff"/>
</svg>
