<svg xmlns="http://www.w3.org/2000/svg" xmlns:xlink="http://www.w3.org/1999/xlink" width="467.247" height="512.068" viewBox="0 0 467.247 512.068">
  <defs>
    <linearGradient id="linear-gradient" x1="0.468" y1="1.076" x2="0.468" y2="0.174" gradientUnits="objectBoundingBox">
      <stop offset="0" stop-color="#ffd38b"/>
      <stop offset="0.482" stop-color="#e248a7"/>
      <stop offset="1" stop-color="#7461c7"/>
    </linearGradient>
    <clipPath id="clip-path">
      <circle id="Ellipse_6" data-name="Ellipse 6" cx="21.8" cy="21.8" r="21.8" transform="translate(97.084 175.463) rotate(-25.22)"/>
    </clipPath>
  </defs>
  <g id="Group_262" data-name="Group 262" transform="translate(-110.16 -114.407)">
    <g id="Group_252" data-name="Group 252" transform="translate(85 80)">
      <g id="Group_183" data-name="Group 183">
        <g id="Group_182" data-name="Group 182">
          <g id="Group_181" data-name="Group 181">
            <path id="Path_133" data-name="Path 133" d="M382.1,386.7A16.69,16.69,0,0,1,393.4,358a16.446,16.446,0,0,1,11.9,4.7,16.785,16.785,0,0,1,5.1,11.7,16.446,16.446,0,0,1-4.7,11.9,16.785,16.785,0,0,1-11.7,5.1A16.447,16.447,0,0,1,382.1,386.7Zm18.6-19.2a9.567,9.567,0,0,0-7.1-2.8,10.116,10.116,0,0,0-9.9,10.2,9.993,9.993,0,0,0,3,7.1,9.567,9.567,0,0,0,7.1,2.8,9.993,9.993,0,0,0,7.1-3,9.567,9.567,0,0,0,2.8-7.1A10.05,10.05,0,0,0,400.7,367.5Z" fill="#00a2fa"/>
          </g>
        </g>
        <path id="Path_134" data-name="Path 134" d="M363.8,406.6h0a3.474,3.474,0,0,1-.2-4.9l17.8-19a3.474,3.474,0,0,1,4.9-.2h0a3.474,3.474,0,0,1,.2,4.9l-17.8,19A3.307,3.307,0,0,1,363.8,406.6Z" fill="#00a2fa"/>
      </g>
      <g id="Group_184" data-name="Group 184">
        <path id="Path_135" data-name="Path 135" d="M140,267.4h0a4.469,4.469,0,0,0-6.1,1.8l-11.5,21-8-4.4a4.469,4.469,0,0,0-6.1,1.8h0a4.469,4.469,0,0,0,1.8,6.1l15.8,8.6h0l.1.1,15.8-28.9A4.622,4.622,0,0,0,140,267.4Z" fill="#00a2fa"/>
      </g>
      <g id="Group_187" data-name="Group 187">
        <circle id="Ellipse_14" data-name="Ellipse 14" cx="18.6" cy="18.6" r="18.6" transform="translate(385.274 182.899) rotate(-22.092)" fill="#ff4d41"/>
        <g id="Group_185" data-name="Group 185">
          <rect id="Rectangle_28" data-name="Rectangle 28" width="4" height="12" transform="translate(399.601 193.628) rotate(-22.092)" fill="#e8332e"/>
          <path id="Path_136" data-name="Path 136" d="M406,191.8h0a39.622,39.622,0,0,1,1.2-5.1c.6-1.4-.1-3.8-.3-4.3,0-.1,0-.2.1-.2h0a2.069,2.069,0,0,1,2.7,1.2l1.8,4.4,3.9-1.6a2.434,2.434,0,0,1,3.2,1.4l3,7.4a2.434,2.434,0,0,1-1.4,3.2l-10,4.1a.961.961,0,0,1-1.3-.6l-3.5-8.5A1.033,1.033,0,0,1,406,191.8Z" fill="#e8332e"/>
        </g>
        <g id="Group_186" data-name="Group 186">
          <rect id="Rectangle_29" data-name="Rectangle 29" width="4" height="12" transform="translate(398.622 192.728) rotate(-22.092)" fill="#fff"/>
          <path id="Path_137" data-name="Path 137" d="M405,190.8h0a39.622,39.622,0,0,1,1.2-5.1c.6-1.4-.1-3.8-.3-4.3,0-.1,0-.2.1-.2h0a2.069,2.069,0,0,1,2.7,1.2l1.8,4.4,3.9-1.6a2.434,2.434,0,0,1,3.2,1.4l3,7.4a2.434,2.434,0,0,1-1.4,3.2l-10,4.1a.961.961,0,0,1-1.3-.6l-3.5-8.5A1.1,1.1,0,0,1,405,190.8Z" fill="#fff"/>
        </g>
      </g>
      <g id="Group_190" data-name="Group 190">
        <circle id="Ellipse_15" data-name="Ellipse 15" cx="12.1" cy="12.1" r="12.1" transform="matrix(0.738, -0.675, 0.675, 0.738, 183.124, 140.048)" fill="#3660a3"/>
        <g id="Group_188" data-name="Group 188">
          <rect id="Rectangle_30" data-name="Rectangle 30" width="2.6" height="7.8" transform="matrix(0.675, 0.738, -0.738, 0.675, 197.713, 134.796)" fill="#224d8c"/>
          <path id="Path_138" data-name="Path 138" d="M200.2,138.3h0a16.233,16.233,0,0,1,3.4-.4,4.855,4.855,0,0,0,2.6-1.2h.1a1.3,1.3,0,0,1-.1,1.9l-2.3,2.1,1.8,2a1.6,1.6,0,0,1-.1,2.3l-3.8,3.5a1.6,1.6,0,0,1-2.3-.1l-4.7-5.2a.746.746,0,0,1,0-.9l4.4-4C199.6,138,200,138,200.2,138.3Z" fill="#224d8c"/>
        </g>
        <g id="Group_189" data-name="Group 189">
          <rect id="Rectangle_31" data-name="Rectangle 31" width="2.6" height="7.8" transform="matrix(0.675, 0.738, -0.738, 0.675, 198.087, 134.022)" fill="#fff"/>
          <path id="Path_139" data-name="Path 139" d="M200.6,137.5h0a16.233,16.233,0,0,1,3.4-.4,4.855,4.855,0,0,0,2.6-1.2h.1a1.3,1.3,0,0,1-.1,1.9l-2.3,2.1,1.8,2a1.6,1.6,0,0,1-.1,2.3l-3.8,3.5a1.6,1.6,0,0,1-2.3-.1l-4.7-5.2a.746.746,0,0,1,0-.9l4.4-4A.668.668,0,0,1,200.6,137.5Z" fill="#fff"/>
        </g>
      </g>
      <g id="Group_193" data-name="Group 193">
        <circle id="Ellipse_16" data-name="Ellipse 16" cx="12.1" cy="12.1" r="12.1" transform="translate(63.918 392.004) rotate(-46.986)" fill="#3660a3"/>
        <g id="Group_191" data-name="Group 191">
          <rect id="Rectangle_32" data-name="Rectangle 32" width="2.6" height="7.8" transform="translate(75.291 394.412) rotate(-46.986)" fill="#224d8c"/>
          <path id="Path_140" data-name="Path 140" d="M78.6,391.6h0a26.057,26.057,0,0,1-.7-3.4,4.582,4.582,0,0,0-1.4-2.5v-.1h0a1.3,1.3,0,0,1,1.9-.1l2.3,2.1,1.8-2a1.6,1.6,0,0,1,2.3-.1l3.8,3.6a1.6,1.6,0,0,1,.1,2.3l-4.8,5.1a.561.561,0,0,1-.9,0l-4.4-4.1C78.3,392.3,78.3,391.9,78.6,391.6Z" fill="#224d8c"/>
        </g>
        <g id="Group_192" data-name="Group 192">
          <rect id="Rectangle_33" data-name="Rectangle 33" width="2.6" height="7.8" transform="translate(74.471 394.084) rotate(-46.986)" fill="#fff"/>
          <path id="Path_141" data-name="Path 141" d="M77.7,391.3h0a26.057,26.057,0,0,1-.7-3.4,4.582,4.582,0,0,0-1.4-2.5v-.1h0a1.3,1.3,0,0,1,1.9-.1l2.3,2.1,1.8-2a1.6,1.6,0,0,1,2.3-.1l3.8,3.6a1.6,1.6,0,0,1,.1,2.3L83,396.2a.561.561,0,0,1-.9,0l-4.4-4.1C77.5,392,77.5,391.6,77.7,391.3Z" fill="#fff"/>
        </g>
      </g>
      <g id="Group_196" data-name="Group 196">
        <circle id="Ellipse_17" data-name="Ellipse 17" cx="10.3" cy="10.3" r="10.3" transform="matrix(0.388, -0.922, 0.922, 0.388, 452.477, 326.875)" fill="#3660a3"/>
        <g id="Group_194" data-name="Group 194">
          <rect id="Rectangle_34" data-name="Rectangle 34" width="2.2" height="6.6" transform="matrix(0.922, 0.388, -0.388, 0.922, 461.898, 317.714)" fill="#224d8c"/>
          <path id="Path_142" data-name="Path 142" d="M465.1,319.5h0a13.029,13.029,0,0,1,2.5-1.5c.8-.3,1.4-1.5,1.6-1.8,0,0,.1-.1.1,0h0a1.068,1.068,0,0,1,.6,1.5l-1,2.4,2.1.9a1.356,1.356,0,0,1,.7,1.8l-1.7,4.1a1.356,1.356,0,0,1-1.8.7l-5.5-2.3a.55.55,0,0,1-.3-.7l2-4.7A.505.505,0,0,1,465.1,319.5Z" fill="#224d8c"/>
        </g>
        <g id="Group_195" data-name="Group 195">
          <rect id="Rectangle_35" data-name="Rectangle 35" width="2.2" height="6.6" transform="matrix(0.922, 0.388, -0.388, 0.922, 461.911, 316.924)" fill="#fff"/>
          <path id="Path_143" data-name="Path 143" d="M465.1,318.7h0a13.029,13.029,0,0,1,2.5-1.5c.8-.3,1.4-1.5,1.6-1.8,0,0,.1-.1.1,0h0a1.068,1.068,0,0,1,.6,1.5l-1,2.4,2.1.9a1.356,1.356,0,0,1,.7,1.8l-1.7,4.1a1.356,1.356,0,0,1-1.8.7l-5.5-2.3a.55.55,0,0,1-.3-.7l2-4.7A.569.569,0,0,1,465.1,318.7Z" fill="#fff"/>
        </g>
      </g>
      <g id="Group_199" data-name="Group 199">
        <circle id="Ellipse_18" data-name="Ellipse 18" cx="12.8" cy="12.8" r="12.8" transform="translate(45.625 102.986) rotate(-72.908)" fill="#ff4d41"/>
        <g id="Group_197" data-name="Group 197">
          <rect id="Rectangle_36" data-name="Rectangle 36" width="2.7" height="8.2" transform="translate(56.153 90.488) rotate(17.092)" fill="#e8332e"/>
          <path id="Path_144" data-name="Path 144" d="M60.3,92.2h0A22.141,22.141,0,0,1,63.2,90a5.063,5.063,0,0,0,1.7-2.5.1.1,0,0,1,.1-.1h0a1.431,1.431,0,0,1,1,1.8l-1,3.1,2.7.8a1.648,1.648,0,0,1,1.1,2.1l-1.6,5.3a1.648,1.648,0,0,1-2.1,1.1l-7.1-2a.715.715,0,0,1-.5-.9l1.9-6.1A.751.751,0,0,1,60.3,92.2Z" fill="#e8332e"/>
        </g>
        <g id="Group_198" data-name="Group 198">
          <rect id="Rectangle_37" data-name="Rectangle 37" width="2.7" height="8.2" transform="translate(55.976 89.465) rotate(17.092)" fill="#fff"/>
          <path id="Path_145" data-name="Path 145" d="M60.2,91.3h0a22.141,22.141,0,0,1,2.9-2.2,5.063,5.063,0,0,0,1.7-2.5.1.1,0,0,1,.1-.1h0a1.431,1.431,0,0,1,1,1.8l-1,3.1,2.7.8a1.648,1.648,0,0,1,1.1,2.1l-1.6,5.3a1.648,1.648,0,0,1-2.1,1.1l-7.1-2.2a.715.715,0,0,1-.5-.9l1.9-6.1A1.1,1.1,0,0,1,60.2,91.3Z" fill="#fff"/>
        </g>
      </g>
      <g id="Group_202" data-name="Group 202" transform="translate(-104 42)">
        <circle id="Ellipse_19" data-name="Ellipse 19" cx="12.8" cy="12.8" r="12.8" transform="matrix(0.864, -0.503, 0.503, 0.864, 416.234, 437.867)" fill="#ff4d41"/>
        <g id="Group_200" data-name="Group 200">
          <rect id="Rectangle_38" data-name="Rectangle 38" width="2.7" height="8.2" transform="matrix(0.864, -0.503, 0.503, 0.864, 426.944, 443.771)" fill="#e8332e"/>
          <path id="Path_146" data-name="Path 146" d="M431.1,441.9h0a19.862,19.862,0,0,1,.3-3.6c.3-1-.5-2.5-.7-2.9v-.1h0a1.456,1.456,0,0,1,2,.5l1.6,2.8,2.5-1.4a1.64,1.64,0,0,1,2.3.6l2.8,4.8a1.64,1.64,0,0,1-.6,2.3l-6.4,3.7a.714.714,0,0,1-1-.3l-3.2-5.5A.87.87,0,0,1,431.1,441.9Z" fill="#e8332e"/>
        </g>
        <g id="Group_201" data-name="Group 201">
          <rect id="Rectangle_39" data-name="Rectangle 39" width="2.7" height="8.2" transform="matrix(0.864, -0.503, 0.503, 0.864, 426.208, 443.156)" fill="#fff"/>
          <path id="Path_147" data-name="Path 147" d="M430.3,441.4h0a19.862,19.862,0,0,1,.3-3.6c.3-1-.5-2.5-.7-2.9v-.1h0a1.456,1.456,0,0,1,2,.5l1.6,2.8,2.5-1.4a1.64,1.64,0,0,1,2.3.6l2.8,4.8a1.64,1.64,0,0,1-.6,2.3l-6.4,3.7a.714.714,0,0,1-1-.3l-3.2-5.5A1.086,1.086,0,0,1,430.3,441.4Z" fill="#fff"/>
        </g>
      </g>
      <g id="Group_205" data-name="Group 205">
        <ellipse id="Ellipse_20" data-name="Ellipse 20" cx="30.8" cy="20.2" rx="30.8" ry="20.2" transform="matrix(0.968, -0.25, 0.25, 0.968, 107.419, 167.256)" fill="#ffc348"/>
        <path id="Path_148" data-name="Path 148" d="M127.6,195.2l-4.7,24.9,18.4-24.4Z" fill="#ffc348"/>
        <g id="Group_203" data-name="Group 203">
          <circle id="Ellipse_21" data-name="Ellipse 21" cx="5.2" cy="5.2" r="5.2" transform="matrix(0.968, -0.25, 0.25, 0.968, 123.253, 179.178)" fill="#eaaa39"/>
          <circle id="Ellipse_22" data-name="Ellipse 22" cx="5.2" cy="5.2" r="5.2" transform="matrix(0.968, -0.25, 0.25, 0.968, 137.261, 175.586)" fill="#eaaa39"/>
          <circle id="Ellipse_23" data-name="Ellipse 23" cx="5.2" cy="5.2" r="5.2" transform="matrix(0.968, -0.25, 0.25, 0.968, 151.366, 171.969)" fill="#eaaa39"/>
        </g>
        <g id="Group_204" data-name="Group 204">
          <circle id="Ellipse_24" data-name="Ellipse 24" cx="5.2" cy="5.2" r="5.2" transform="matrix(0.968, -0.25, 0.25, 0.968, 122.672, 178.866)" fill="#ffebc7"/>
          <circle id="Ellipse_25" data-name="Ellipse 25" cx="5.2" cy="5.2" r="5.2" transform="matrix(0.968, -0.25, 0.25, 0.968, 136.654, 175.179)" fill="#ffebc7"/>
          <circle id="Ellipse_26" data-name="Ellipse 26" cx="5.2" cy="5.2" r="5.2" transform="matrix(0.968, -0.25, 0.25, 0.968, 150.662, 171.587)" fill="#ffebc7"/>
        </g>
      </g>
      <g id="Group_208" data-name="Group 208">
        <ellipse id="Ellipse_27" data-name="Ellipse 27" cx="15.9" cy="24.2" rx="15.9" ry="24.2" transform="matrix(0.723, -0.691, 0.691, 0.723, 435.987, 374.18)" fill="#ffc348"/>
        <path id="Path_149" data-name="Path 149" d="M447.5,376.8l-18.8,6.3,23.8,3.3Z" fill="#ffc348"/>
        <g id="Group_206" data-name="Group 206">
          <circle id="Ellipse_28" data-name="Ellipse 28" cx="4.1" cy="4.1" r="4.1" transform="matrix(0.723, -0.691, 0.691, 0.723, 450.871, 373.295)" fill="#eaaa39"/>
          <circle id="Ellipse_29" data-name="Ellipse 29" cx="4.1" cy="4.1" r="4.1" transform="matrix(0.723, -0.691, 0.691, 0.723, 458.799, 381.563)" fill="#eaaa39"/>
          <circle id="Ellipse_30" data-name="Ellipse 30" cx="4.1" cy="4.1" r="4.1" transform="matrix(0.723, -0.691, 0.691, 0.723, 466.658, 389.759)" fill="#eaaa39"/>
        </g>
        <g id="Group_207" data-name="Group 207">
          <circle id="Ellipse_31" data-name="Ellipse 31" cx="4.1" cy="4.1" r="4.1" transform="matrix(0.723, -0.691, 0.691, 0.723, 451.001, 372.708)" fill="#ffebc7"/>
          <circle id="Ellipse_32" data-name="Ellipse 32" cx="4.1" cy="4.1" r="4.1" transform="matrix(0.723, -0.691, 0.691, 0.723, 458.788, 380.973)" fill="#ffebc7"/>
          <circle id="Ellipse_33" data-name="Ellipse 33" cx="4.1" cy="4.1" r="4.1" transform="matrix(0.723, -0.691, 0.691, 0.723, 466.715, 389.241)" fill="#ffebc7"/>
        </g>
      </g>
      <g id="Group_214" data-name="Group 214">
        <circle id="Ellipse_34" data-name="Ellipse 34" cx="13.2" cy="13.2" r="13.2" transform="matrix(0.871, -0.492, 0.492, 0.871, 271.332, 47.394)" fill="#ff4d41"/>
        <g id="Group_210" data-name="Group 210">
          <g id="Group_209" data-name="Group 209">
            <path id="Path_150" data-name="Path 150" d="M295.7,47.4c-1.7-2.7-5.1-2.9-6.7-1a4.2,4.2,0,0,0-1.1,2.7,4.434,4.434,0,0,0-2.9-.4c-2.5.4-4,3.4-2.6,6.3,1.4,2.7,5.8,3.6,10.3,4.1a1.419,1.419,0,0,0,1.4-.8C295.9,54.2,297.3,49.9,295.7,47.4Z" fill="#e5322e"/>
          </g>
        </g>
        <g id="Group_213" data-name="Group 213">
          <g id="Group_212" data-name="Group 212">
            <g id="Group_211" data-name="Group 211">
              <path id="Path_151" data-name="Path 151" d="M295.1,47.1c-1.7-2.7-5.1-2.9-6.7-1a4.2,4.2,0,0,0-1.1,2.7,4.434,4.434,0,0,0-2.9-.4c-2.5.4-4,3.4-2.6,6.3,1.4,2.7,5.8,3.6,10.3,4.1a1.419,1.419,0,0,0,1.4-.8C295.3,54,296.8,49.7,295.1,47.1Z" fill="#fff"/>
            </g>
          </g>
        </g>
      </g>
      <g id="Group_220" data-name="Group 220">
        <circle id="Ellipse_35" data-name="Ellipse 35" cx="9.9" cy="9.9" r="9.9" transform="translate(110.061 249.073) rotate(-68.574)" fill="#ff4d41"/>
        <g id="Group_216" data-name="Group 216">
          <g id="Group_215" data-name="Group 215">
            <path id="Path_152" data-name="Path 152" d="M128.9,244.8a3.165,3.165,0,0,0-2.6-4.4,3.282,3.282,0,0,0-2.1.6,3.031,3.031,0,0,0-5.9-.4c-.9,2.1.6,5.1,2.5,7.9a.949.949,0,0,0,1.1.4C125,248.1,128.2,246.9,128.9,244.8Z" fill="#e5322e"/>
          </g>
        </g>
        <g id="Group_219" data-name="Group 219">
          <g id="Group_218" data-name="Group 218">
            <g id="Group_217" data-name="Group 217">
              <path id="Path_153" data-name="Path 153" d="M128.8,244.3a3.165,3.165,0,0,0-2.6-4.4,3.282,3.282,0,0,0-2.1.6,3.031,3.031,0,0,0-5.9-.4c-.9,2.1.6,5.1,2.5,7.9a.949.949,0,0,0,1.1.4C124.9,247.7,128,246.5,128.8,244.3Z" fill="#fff"/>
            </g>
          </g>
        </g>
      </g>
      <g id="Group_226" data-name="Group 226">
        <circle id="Ellipse_36" data-name="Ellipse 36" cx="8.7" cy="8.7" r="8.7" transform="translate(331.715 411.95) rotate(-14.471)" fill="#ff4d41"/>
        <g id="Group_222" data-name="Group 222">
          <g id="Group_221" data-name="Group 221">
            <path id="Path_154" data-name="Path 154" d="M347.2,416.1a2.8,2.8,0,0,0-4.1-1.8,3.537,3.537,0,0,0-1.2,1.5,2.9,2.9,0,0,0-1.8-.8c-1.7-.1-3.1,1.5-2.7,3.6.4,1.9,3.1,3.3,5.8,4.4a.959.959,0,0,0,1-.3C346.2,420.5,347.8,418,347.2,416.1Z" fill="#e5322e"/>
          </g>
        </g>
        <g id="Group_225" data-name="Group 225">
          <g id="Group_224" data-name="Group 224">
            <g id="Group_223" data-name="Group 223">
              <path id="Path_155" data-name="Path 155" d="M346.9,415.9a2.8,2.8,0,0,0-4.1-1.8,3.537,3.537,0,0,0-1.2,1.5,2.9,2.9,0,0,0-1.8-.8c-1.7-.1-3.1,1.5-2.7,3.6.4,1.9,3.1,3.3,5.8,4.4a.959.959,0,0,0,1-.3C345.9,420.3,347.5,417.8,346.9,415.9Z" fill="#fff"/>
            </g>
          </g>
        </g>
      </g>
      <g id="Group_232" data-name="Group 232">
        <circle id="Ellipse_37" data-name="Ellipse 37" cx="8.7" cy="8.7" r="8.7" transform="translate(323.952 154.297) rotate(-75.238)" fill="#ff4d41"/>
        <g id="Group_228" data-name="Group 228">
          <g id="Group_227" data-name="Group 227">
            <path id="Path_156" data-name="Path 156" d="M339.9,148.7c.4-2.1-1.1-3.7-2.7-3.5a2.9,2.9,0,0,0-1.8.8,2.747,2.747,0,0,0-5.3.3c-.6,1.9,1.1,4.4,3,6.6a.905.905,0,0,0,1,.3C336.9,152,339.5,150.6,339.9,148.7Z" fill="#e5322e"/>
          </g>
        </g>
        <g id="Group_231" data-name="Group 231">
          <g id="Group_230" data-name="Group 230">
            <g id="Group_229" data-name="Group 229">
              <path id="Path_157" data-name="Path 157" d="M339.8,148.3c.4-2.1-1.1-3.7-2.7-3.5a2.9,2.9,0,0,0-1.8.8,2.747,2.747,0,0,0-5.3.3c-.6,1.9,1.1,4.4,3,6.6a.905.905,0,0,0,1,.3C336.7,151.6,339.4,150.2,339.8,148.3Z" fill="#fff"/>
            </g>
          </g>
        </g>
      </g>
      <g id="Group_233" data-name="Group 233">
        <path id="Path_158" data-name="Path 158" d="M176.1,114.1l-48.8,13.7a9.4,9.4,0,0,1-11.6-6.5L102,72.5a9.4,9.4,0,0,1,6.5-11.6l48.8-13.7a9.4,9.4,0,0,1,11.6,6.5l13.7,48.8A9.565,9.565,0,0,1,176.1,114.1Z" fill="#00b0f3"/>
        <g id="XMLID_18_">
          <g id="XMLID_23_">
            <path id="XMLID_24_" d="M119,93.8s7.8,4.4,13.7-2.2,3.1-14.6,9.1-20.8c7.6-7.8,20.5.9,15.1,16.4C150.2,107,132.1,109.4,119,93.8Z" fill="#fff"/>
          </g>
          <g id="XMLID_21_">
            <path id="XMLID_22_" d="M154.4,75.5l7.8-2.2c.9-.3,1.6.5,1,1.2l-6,7.1Z" fill="#fff"/>
          </g>
          <g id="XMLID_19_">
            <path id="XMLID_20_" d="M142.6,80.2s-11.1,2.6-18.9.8a1.589,1.589,0,0,0-1.8,2.2,16.579,16.579,0,0,0,12,9.6C144.7,94.7,142.6,80.2,142.6,80.2Z" fill="#fff"/>
          </g>
        </g>
      </g>
      <g id="Group_234" data-name="Group 234">
        <path id="Path_159" data-name="Path 159" d="M430.8,302.1,388,318.6a8.5,8.5,0,0,1-11-4.9L360.4,271a8.5,8.5,0,0,1,4.9-11l42.8-16.5a8.5,8.5,0,0,1,11,4.9l16.5,42.8A8.457,8.457,0,0,1,430.8,302.1Z" fill="#1353a0"/>
        <g id="XMLID_1_">
          <g id="XMLID_4_">
            <path id="XMLID_5_" d="M418.7,306.7l-6.9,2.7-14.6-37.7a10.636,10.636,0,0,1,6-13.7l6.6-2.5,2.7,6.9L406,265a3.219,3.219,0,0,0-1.8,4.1Z" fill="#fff"/>
          </g>
          <g id="XMLID_2_">
            <rect id="XMLID_3_" width="26.3" height="7.4" transform="translate(391.448 281.885) rotate(-21.137)" fill="#fff"/>
          </g>
        </g>
      </g>
      <g id="Group_236" data-name="Group 236">
        <path id="Path_160" data-name="Path 160" d="M402.2,122.6l-47.8-7.9a8.953,8.953,0,0,1-7.4-10.3l7.9-47.8a8.953,8.953,0,0,1,10.3-7.4L413,57.1a8.953,8.953,0,0,1,7.4,10.3l-7.9,47.8A9.006,9.006,0,0,1,402.2,122.6Z" fill="url(#linear-gradient)"/>
        <g id="Group_235" data-name="Group 235">
          <g id="XMLID_14_">
            <path id="XMLID_15_" d="M391.7,110l-23.4-3.8a9.826,9.826,0,0,1-8.1-11.3L364,71.5a9.826,9.826,0,0,1,11.3-8.1l23.4,3.8a9.826,9.826,0,0,1,8.1,11.3L403,101.9A9.9,9.9,0,0,1,391.7,110ZM374.5,68.5a4.533,4.533,0,0,0-5.2,3.8l-3.8,23.4a4.533,4.533,0,0,0,3.8,5.2l23.4,3.8a4.533,4.533,0,0,0,5.2-3.8l3.8-23.4a4.533,4.533,0,0,0-3.8-5.2Z" fill="#fff"/>
          </g>
          <g id="XMLID_10_">
            <path id="XMLID_11_" d="M381.8,97.2A10.637,10.637,0,1,1,394,88.4,10.7,10.7,0,0,1,381.8,97.2Zm2.6-15.8a5.26,5.26,0,0,0-6.1,4.4,5.332,5.332,0,0,0,4.4,6.1,5.318,5.318,0,0,0,1.7-10.5Z" fill="#fff"/>
          </g>
          <g id="XMLID_8_">
            <circle id="XMLID_9_" cx="2.4" cy="2.4" r="2.4" transform="translate(392.815 79.386) rotate(-80.677)" fill="#fff"/>
          </g>
        </g>
      </g>
      <g id="Group_237" data-name="Group 237">
        <path id="Path_161" data-name="Path 161" d="M109.1,333,70.5,363.6a9.179,9.179,0,0,1-12.8-1.5L27.1,323.5a9.179,9.179,0,0,1,1.5-12.8l38.6-30.6A9.179,9.179,0,0,1,80,281.6l30.6,38.6A9.168,9.168,0,0,1,109.1,333Z" fill="#ff4d41"/>
        <g id="XMLID_6_">
          <path id="XMLID_7_" d="M48.7,312.3l30.6-3.6c2.7-.3,5.7,3.4,4.7,6l-10.5,29c-.7,2.1-3.6,1.8-5.5-.5L47.9,317.8C46.1,315.4,46.5,312.6,48.7,312.3Z" fill="#fff"/>
        </g>
      </g>
      <g id="Group_242" data-name="Group 242">
        <circle id="Ellipse_38" data-name="Ellipse 38" cx="20.6" cy="20.6" r="20.6" transform="matrix(0.979, -0.204, 0.204, 0.979, 239.153, 97.637)" fill="#ffc348"/>
        <g id="Group_239" data-name="Group 239">
          <g id="Group_238" data-name="Group 238">
            <path id="Path_162" data-name="Path 162" d="M260.9,108.2c-.7-2.6-3.3-3.6-5.1-2.5a3.651,3.651,0,0,0-1.6,1.9,3.664,3.664,0,0,0-2.2-1.1c-2.1-.3-4,1.7-3.6,4.3.4,2.5,3.7,4.3,7.1,5.8a1.12,1.12,0,0,0,1.3-.3C259.3,113.6,261.6,110.6,260.9,108.2Z" fill="#ff4d41"/>
          </g>
        </g>
        <g id="Group_241" data-name="Group 241">
          <g id="Group_240" data-name="Group 240">
            <path id="Path_163" data-name="Path 163" d="M276.2,105c-.7-2.6-3.3-3.6-5.1-2.5a3.651,3.651,0,0,0-1.6,1.9,3.664,3.664,0,0,0-2.2-1.1c-2.1-.3-4,1.7-3.6,4.3.4,2.5,3.7,4.3,7.1,5.8a1.12,1.12,0,0,0,1.3-.3C274.6,110.5,276.8,107.4,276.2,105Z" fill="#ff4d41"/>
          </g>
        </g>
        <path id="Path_164" data-name="Path 164" d="M254.8,121.1a10.111,10.111,0,0,0,19.8-4.1Z" fill="#755926"/>
      </g>
      <g id="Group_246" data-name="Group 246">
        <circle id="Ellipse_39" data-name="Ellipse 39" cx="16.4" cy="16.4" r="16.4" transform="translate(26.064 174.617) rotate(-56.159)" fill="#ffc348"/>
        <g id="Group_243" data-name="Group 243">
          <path id="Path_165" data-name="Path 165" d="M47.7,167.8c-.2-.1-.2-.4-.1-.6a4.327,4.327,0,0,0-7.2-4.8c-.1.2-.4.2-.6.1s-.2-.4-.1-.6a5.187,5.187,0,0,1,8.6,5.8A.471.471,0,0,1,47.7,167.8Z" fill="#4f3912"/>
        </g>
        <g id="Group_244" data-name="Group 244">
          <path id="Path_166" data-name="Path 166" d="M58.9,175.3c-.2-.1-.2-.4-.1-.6a4.327,4.327,0,0,0-7.2-4.8c-.1.2-.4.2-.6.1s-.2-.4-.1-.6a5.187,5.187,0,0,1,8.6,5.8A.377.377,0,0,1,58.9,175.3Z" fill="#4f3912"/>
        </g>
        <g id="Group_245" data-name="Group 245">
          <path id="Path_167" data-name="Path 167" d="M42.8,170.6c.2.1.2.4.1.6a4.327,4.327,0,0,0,7.2,4.8c.1-.2.4-.2.6-.1s.2.4.1.6a5.187,5.187,0,0,1-8.6-5.8C42.3,170.5,42.6,170.5,42.8,170.6Z" fill="#4f3912"/>
        </g>
      </g>
      <g id="Group_249" data-name="Group 249">
        <circle id="Ellipse_40" data-name="Ellipse 40" cx="19.4" cy="19.4" r="19.4" transform="translate(429.689 217.771) rotate(-20.303)" fill="#ffc348"/>
        <path id="Path_168" data-name="Path 168" d="M447.6,237.4a9.54,9.54,0,0,0,17.9-6.6Z" fill="#755926"/>
        <g id="Group_247" data-name="Group 247">
          <path id="Path_169" data-name="Path 169" d="M451.7,228.7a.419.419,0,0,1-.6-.3,5.126,5.126,0,0,0-9.6,3.6.474.474,0,1,1-.9.3,6.075,6.075,0,1,1,11.4-4.2A.713.713,0,0,1,451.7,228.7Z" fill="#4f3912"/>
        </g>
        <g id="Group_248" data-name="Group 248">
          <path id="Path_170" data-name="Path 170" d="M466.7,223.2a.419.419,0,0,1-.6-.3,5.126,5.126,0,0,0-9.6,3.6.474.474,0,1,1-.9.3,6.075,6.075,0,1,1,11.4-4.2A.713.713,0,0,1,466.7,223.2Z" fill="#4f3912"/>
        </g>
        <path id="Path_171" data-name="Path 171" d="M441.6,234.6s-9.1,9.3-4.5,11.1C441.9,247.7,441.6,234.6,441.6,234.6Z" fill="#00b0f3"/>
        <path id="Path_172" data-name="Path 172" d="M438.2,231.7s-15.3-5.3-15,.8C423.5,239.1,438.2,231.7,438.2,231.7Z" fill="#00b0f3"/>
        <path id="Path_173" data-name="Path 173" d="M437.5,226s-7.1-10.8-9.9-6.8C424.6,223.6,437.5,226,437.5,226Z" fill="#00b0f3"/>
        <path id="Path_174" data-name="Path 174" d="M468.5,224.6s12.9,1.1,10.7,5.5C476.7,234.8,468.5,224.6,468.5,224.6Z" fill="#00b0f3"/>
        <path id="Path_175" data-name="Path 175" d="M469.2,220.2s8.2-14,11.9-9.2C485.1,216.3,469.2,220.2,469.2,220.2Z" fill="#00b0f3"/>
        <path id="Path_176" data-name="Path 176" d="M466,215.4s-1.6-12.9,3.1-11.6C474.2,205.2,466,215.4,466,215.4Z" fill="#00b0f3"/>
      </g>
      <g id="Group_251" data-name="Group 251">
        <circle id="Ellipse_41" data-name="Ellipse 41" cx="16.4" cy="16.4" r="16.4" transform="matrix(0.466, -0.885, 0.885, 0.466, 273.678, 436.595)" fill="#ffc348"/>
        <g id="Group_250" data-name="Group 250">
          <path id="Path_177" data-name="Path 177" d="M289.9,430.8a.481.481,0,0,1,.2.6,4.362,4.362,0,1,0,7.7,4.1.447.447,0,1,1,.8.4,5.188,5.188,0,1,1-9.2-4.8A.338.338,0,0,1,289.9,430.8Z" fill="#4f3912"/>
        </g>
        <circle id="Ellipse_42" data-name="Ellipse 42" cx="2.6" cy="2.6" r="2.6" transform="matrix(0.466, -0.885, 0.885, 0.466, 287.785, 422.787)" fill="#4f3912"/>
        <circle id="Ellipse_43" data-name="Ellipse 43" cx="2.6" cy="2.6" r="2.6" transform="matrix(0.466, -0.885, 0.885, 0.466, 301.131, 429.808)" fill="#4f3912"/>
      </g>
    </g>
    <g id="Group_254" data-name="Group 254" transform="translate(85 80)">
      <path id="Path_185" data-name="Path 185" d="M184.5,255.6Z" fill="#e9ba9c"/>
      <path id="Path_186" data-name="Path 186" d="M248.6,426.9Z" fill="#e9ba9c"/>
      <path id="Path_187" data-name="Path 187" d="M193.1,206.3c.2.2.3.4.5.5A1.73,1.73,0,0,0,193.1,206.3Z" fill="#e9ba9c"/>
    </g>
    <path id="Path_195" data-name="Path 195" d="M178.8,217.6a2.016,2.016,0,0,1-.3,1.1,2.276,2.276,0,0,1-.9.8,4.875,4.875,0,0,1-.7.3c-.6-5.5-.9-9.9-1.3-15.4a8.083,8.083,0,0,1,.1-1.6c1,.3,1.8,2.1,2.1,3.1A27.319,27.319,0,0,1,178.8,217.6Z" transform="translate(85 80)" fill="#ffefe9" opacity="0.6"/>
    <path id="Path_188" data-name="Path 188" d="M172.1,490.4Z" transform="translate(85 80)" fill="#e9ba9c"/>
    <path id="Path_189" data-name="Path 189" d="M172.1,490.4l-.2-.2v.1A.349.349,0,0,1,172.1,490.4Z" transform="translate(85 80)" fill="#e9ba9c"/>
    <path id="Path_207" data-name="Path 207" d="M330.6,291.4a14.356,14.356,0,0,0,3.6.7,3.583,3.583,0,0,1,1.1.4c.9.6.8,1.9.7,3-.1.9-.2,1.9-.3,2.8,0,.3-.1.6.1.9a1.182,1.182,0,0,0,1.8.1,2.564,2.564,0,0,0,.6-1.9,17.851,17.851,0,0,0,.2-2.3,8.156,8.156,0,0,0,0-2.7,5.017,5.017,0,0,0-2.7-3,12.855,12.855,0,0,0-5.4-1.5C327.5,288.1,328.8,290.7,330.6,291.4Z" transform="translate(85 80)" fill="#ffefe9" opacity="0.6"/>
    <g id="Group_160" data-name="Group 160" transform="translate(243.413 50.735) rotate(7)">
      <path id="Path_91" data-name="Path 91" d="M79.2,279.9h53.1a3.372,3.372,0,0,0,3.4-3.4V244.7a3.372,3.372,0,0,0-3.4-3.4H79.2a3.372,3.372,0,0,0-3.4,3.4v31.8A3.372,3.372,0,0,0,79.2,279.9Z" fill="#ff4d41"/>
      <path id="Path_92" data-name="Path 92" d="M91.7,272.4l3.7,22.2L78.7,272.4Z" fill="#ff4d41"/>
      <path id="Path_93" data-name="Path 93" d="M116.8,250.8a7.545,7.545,0,0,0-10.6,0l-.5.5-.5-.5a7.5,7.5,0,0,0-10.6,10.6l.5.5,10.6,10.6,10.6-10.6.5-.5A7.545,7.545,0,0,0,116.8,250.8Z" fill="#fff"/>
    </g>
    <g id="Group_166" data-name="Group 166" transform="translate(-72.883 280.838) rotate(-31)">
      <circle id="Ellipse_9" data-name="Ellipse 9" cx="16.6" cy="16.6" r="16.6" transform="translate(91.976 355.106) rotate(-76.443)" fill="#5acaa9"/>
      <g id="Group_165" data-name="Group 165">
        <rect id="Rectangle_19" data-name="Rectangle 19" width="3" height="9.1" transform="translate(105.807 338.871) rotate(13.557)" fill="#fff"/>
        <path id="Path_99" data-name="Path 99" d="M110.5,340.6h0a25.853,25.853,0,0,1,3-2.6,5.39,5.39,0,0,0,1.7-2.8.1.1,0,0,1,.1-.1h0a1.58,1.58,0,0,1,1.2,1.9l-.8,3.5,3.1.7a1.947,1.947,0,0,1,1.4,2.3l-1.4,5.9a1.947,1.947,0,0,1-2.3,1.4l-8-1.9a.779.779,0,0,1-.6-.9l1.6-6.8A.832.832,0,0,1,110.5,340.6Z" fill="#fff"/>
      </g>
    </g>
    <g id="XMLID_298_" transform="matrix(-0.545, -0.839, 0.839, -0.545, 435.669, 716.656)">
      <g id="XMLID_236_">
        <circle id="XMLID_350_" cx="22.3" cy="22.3" r="22.3" transform="translate(354.923 382.736) rotate(-65.639)" fill="#ff4d41"/>
      </g>
      <g id="XMLID_114_">
        <path id="XMLID_274_" d="M384.5,361.2l10.4,13.2a2.154,2.154,0,0,1-1.5,3.3l-16.7.9c-1.2.1-1.9-1.3-1.3-2.6l6.4-14C382.3,360.6,383.8,360.3,384.5,361.2Z" fill="#fff"/>
      </g>
    </g>
    <g id="XMLID_266_" transform="matrix(0.966, 0.259, -0.259, 0.966, 173.918, 323.146)">
      <g id="XMLID_244_">
        <circle id="XMLID_365_" cx="21.8" cy="21.8" r="21.8" transform="translate(97.084 175.463) rotate(-25.22)" fill="#1f8ddf"/>
      </g>
      <g id="XMLID_204_">
        <g id="XMLID_123_" clip-path="url(#clip-path)">
          <g id="XMLID_245_">
            <path id="XMLID_201_" d="M137.7,205.4l-4.7,2.2-12.1-25.7a7.448,7.448,0,0,1,3.6-9.9l4.5-2.1,2.2,4.7-4.5,2.1a2.312,2.312,0,0,0-1.1,3Z" fill="#fff"/>
          </g>
          <g id="XMLID_247_">
            <rect id="XMLID_200_" width="18.5" height="5.2" transform="translate(117.273 189.31) rotate(-25.22)" fill="#fff"/>
          </g>
        </g>
      </g>
    </g>
    <g id="XMLID_268_" transform="translate(-95.67 862.106) rotate(-65)">
      <g id="XMLID_241_" transform="translate(391.79 220.076)">
        <circle id="XMLID_370_" cx="37.279" cy="37.279" r="37.279" transform="matrix(0.544, -0.839, 0.839, 0.544, 0, 62.569)" fill="#38ace5"/>
      </g>
      <g id="XMLID_249_" transform="translate(422.536 254.03)">
        <g id="XMLID_246_" transform="translate(0 5.75)">
          <path id="XMLID_369_" d="M410.274,243.4s1.872,8.852,10.894,9.022c9.022,0,13.277-7.49,21.959-6.979,11.065.511,13.107,16.171-2.383,22.47C421.169,275.913,407.21,263.827,410.274,243.4Z" transform="translate(-409.852 -243.4)" fill="#fff"/>
        </g>
        <g id="XMLID_250_" transform="translate(35.489 20.389)">
          <path id="XMLID_368_" d="M433.424,252l6.979,4.426c.851.511.681,1.532-.17,1.532l-9.533.17Z" transform="translate(-430.7 -252)" fill="#fff"/>
        </g>
        <g id="XMLID_248_" transform="translate(8.815)">
          <path id="XMLID_367_" d="M432.852,254.624s-9.362-6.639-13.277-13.788a1.62,1.62,0,0,0-2.894.17,16.241,16.241,0,0,0,.681,15.49C423.15,265.858,432.852,254.624,432.852,254.624Z" transform="translate(-415.03 -240.022)" fill="#fff"/>
        </g>
      </g>
    </g>
    <g id="XMLID_271_" transform="translate(230.56 502.941) rotate(-76)">
      <g id="XMLID_234_">
        <circle id="XMLID_348_" cx="21.8" cy="21.8" r="21.8" transform="translate(222.109 122.474) rotate(-64.665)" fill="#ff4e6b"/>
      </g>
      <g id="XMLID_96_">
        <path id="XMLID_166_" d="M251.8,125.1l-11.2-5.3a4.988,4.988,0,0,1-2.4-6.8l5.3-11.2a4.988,4.988,0,0,1,6.8-2.4l11.2,5.3a4.988,4.988,0,0,1,2.4,6.8l-5.3,11.2A5.124,5.124,0,0,1,251.8,125.1Zm-2.7-23.3a2.367,2.367,0,0,0-3.2,1.1l-5.3,11.2a2.367,2.367,0,0,0,1.1,3.2l11.2,5.3a2.367,2.367,0,0,0,3.2-1.1l5.3-11.2a2.367,2.367,0,0,0-1.1-3.2Z" fill="#fff"/>
      </g>
      <g id="XMLID_101_">
        <path id="XMLID_154_" d="M248.7,117.2a5.546,5.546,0,1,1,7.4-2.6A5.6,5.6,0,0,1,248.7,117.2Zm3.6-7.5a2.773,2.773,0,1,0,1.3,3.7A2.876,2.876,0,0,0,252.3,109.7Z" fill="#fff"/>
      </g>
      <g id="XMLID_103_">
        <circle id="XMLID_318_" cx="1.3" cy="1.3" r="1.3" transform="translate(256.733 109.872) rotate(-64.665)" fill="#fff"/>
      </g>
    </g>
    <g id="Group_162" data-name="Group 162" transform="translate(-102.508 541.023) rotate(-28)">
      <circle id="Ellipse_7" data-name="Ellipse 7" cx="16.6" cy="16.6" r="16.6" transform="matrix(0.86, -0.511, 0.511, 0.86, 332.843, 70.64)" fill="#ffa031"/>
      <path id="Path_97" data-name="Path 97" d="M359.6,77.1a2.591,2.591,0,0,0-1,1.1l-4.7-.2c-.1-.1-.1-.3-.2-.4s-.2-.3-.3-.4l2.1-4.3a2.822,2.822,0,0,0,1.5-.4,2.624,2.624,0,1,0-3.6-.9c.1.1.2.3.3.4l-2.1,4.3a2.822,2.822,0,0,0-1.5.4,2.624,2.624,0,1,0,3.7,3.4l4.7.2c.1.1.1.3.2.4a2.624,2.624,0,1,0,4.5-2.7A2.512,2.512,0,0,0,359.6,77.1Z" fill="#fff"/>
    </g>
    <g id="Group_171" data-name="Group 171" transform="translate(-148.381 731.039) rotate(-74)">
      <rect id="Rectangle_20" data-name="Rectangle 20" width="3.5" height="10.4" transform="matrix(0.609, 0.794, -0.794, 0.609, 357.254, 321.651)" fill="#1f8ddf"/>
      <path id="Path_102" data-name="Path 102" d="M360.2,326.6h0a25.157,25.157,0,0,1,4.6-.2c1.3.2,3.1-1,3.6-1.3h.2a1.891,1.891,0,0,1-.3,2.6l-3.3,2.5,2.2,2.9a2.2,2.2,0,0,1-.4,3l-5.5,4.2a2.2,2.2,0,0,1-3-.4l-5.7-7.4a.83.83,0,0,1,.2-1.2l6.3-4.9C359.3,326.1,359.9,326.2,360.2,326.6Z" fill="#1f8ddf"/>
    </g>
    <path id="Path_103" data-name="Path 103" d="M274.391,171.592A8.1,8.1,0,0,0,263.6,167.38l-.79.263-.263-.79a8.192,8.192,0,1,0-15,6.581l.263.79,6.581,15,15-6.581.79-.263A8.017,8.017,0,0,0,274.391,171.592Z" transform="translate(28.909 308.41) rotate(-16)" fill="#ff4d41"/>
    <g id="Group_256" data-name="Group 256" transform="translate(-2278 600.3)">
      <g id="Group_107" data-name="Group 107" transform="translate(2623.4 -171.9)">
        <g id="Group_105" data-name="Group 105" transform="translate(0)">
          <g id="Group_104" data-name="Group 104">
            <path id="Path_59" data-name="Path 59" d="M63.45,619.6A13.55,13.55,0,1,1,77,606.05,13.564,13.564,0,0,1,63.45,619.6Z" transform="translate(-49.9 -592.5)" fill="#f23f7e"/>
          </g>
        </g>
        <g id="Group_106" data-name="Group 106" transform="translate(5.348 5.348)">
          <path id="Path_60" data-name="Path 60" d="M69.584,603.267a8.2,8.2,0,1,0,7.423,7.423A8.221,8.221,0,0,0,69.584,603.267Zm4.683,4.135a6.769,6.769,0,0,1,1.345,3.686.132.132,0,0,1-.149.149,12.514,12.514,0,0,0-4.284-.149c-.05,0-.1,0-.149-.1l-.448-1.046a.1.1,0,0,1,.05-.149,11.273,11.273,0,0,0,3.437-2.391A.1.1,0,0,1,74.267,607.4Zm-1.245-1.1a10.119,10.119,0,0,1-3.089,2.142.1.1,0,0,1-.149-.05,21.672,21.672,0,0,0-2.242-3.437.135.135,0,0,1,.1-.2,9.676,9.676,0,0,1,1.2-.1,6.756,6.756,0,0,1,4.185,1.445A.152.152,0,0,1,73.022,606.306Zm-6.974-.9a23.99,23.99,0,0,1,2.341,3.487c.05.05,0,.149-.05.2a23.289,23.289,0,0,1-5.878.8.159.159,0,0,1-.149-.149A6.791,6.791,0,0,1,65.9,605.41C65.948,605.31,66,605.36,66.047,605.41Zm-3.836,5.928a25.674,25.674,0,0,0,6.825-1,.183.183,0,0,1,.149.05c.149.249.249.548.4.847.05.05,0,.149-.1.149a12.081,12.081,0,0,0-5.729,4.234.152.152,0,0,1-.2,0,6.618,6.618,0,0,1-1.494-4.234C62.112,611.387,62.162,611.338,62.211,611.338Zm2.59,5.33a10.647,10.647,0,0,1,5.231-3.886c.05,0,.149,0,.149.1a24.312,24.312,0,0,1,1.2,4.732c0,.05,0,.1-.1.149a6.727,6.727,0,0,1-2.491.5,6.8,6.8,0,0,1-3.985-1.3C64.8,616.818,64.752,616.718,64.8,616.668Zm7.921.05a25.06,25.06,0,0,0-1.1-4.135c-.05-.1,0-.149.1-.149a11.185,11.185,0,0,1,3.587.249c.05,0,.1.1.1.149a7.036,7.036,0,0,1-2.491,3.985C72.872,616.867,72.772,616.818,72.723,616.718Z" transform="translate(-60.635 -603.235)" fill="#fff"/>
        </g>
      </g>
    </g>
    <g id="Group_257" data-name="Group 257" transform="translate(330.5 -28.331)">
      <g id="Group_101" data-name="Group 101" transform="translate(131.4 527.5)">
        <g id="Group_98" data-name="Group 98">
          <path id="Path_57" data-name="Path 57" d="M169.45,603.6a38.05,38.05,0,1,1,38.05-38.05A38.089,38.089,0,0,1,169.45,603.6Z" transform="translate(-131.4 -527.5)" fill="#007ab9"/>
        </g>
        <g id="Group_100" data-name="Group 100" transform="translate(19.864 29.373)">
          <g id="Group_99" data-name="Group 99">
            <path id="Path_58" data-name="Path 58" d="M185.328,560.112V574.38a.661.661,0,0,1-.7.7h-7.414a.661.661,0,0,1-.7-.7V561.091c0-3.5-1.259-5.875-4.337-5.875a4.9,4.9,0,0,0-4.756,5.316V574.38a.661.661,0,0,1-.7.7h-7.414a.661.661,0,0,1-.7-.7c0-3.5.14-20.564,0-24.62a.661.661,0,0,1,.7-.7h7.274a.661.661,0,0,1,.7.7v3.217h0v-.14a8.52,8.52,0,0,1,7.834-4.336c6.015-.14,10.212,3.637,10.212,11.611ZM146.3,574.94h7.414a.661.661,0,0,0,.7-.7V549.62a.661.661,0,0,0-.7-.7H146.3a.661.661,0,0,0-.7.7v24.62A.661.661,0,0,0,146.3,574.94Z" transform="translate(-145.6 -548.497)" fill="#fff"/>
          </g>
        </g>
      </g>
      <g id="Group_102" data-name="Group 102" transform="translate(150.705 544.846)">
        <circle id="Ellipse_3" data-name="Ellipse 3" cx="4.616" cy="4.616" r="4.616" transform="translate(0)" fill="#fff"/>
      </g>
    </g>
    <g id="Group_258" data-name="Group 258" transform="translate(-397 -350.6)">
      <circle id="Ellipse_44" data-name="Ellipse 44" cx="14" cy="14" r="14" transform="translate(769 716)" fill="red"/>
      <g id="Group_33" data-name="Group 33" transform="translate(776.721 722.176)">
        <g id="Group_32" data-name="Group 32" transform="translate(0)">
          <path id="Path_20" data-name="Path 20" d="M153.659,357.829a4.88,4.88,0,0,1-2.213-1.029,11.273,11.273,0,0,1-1.75,4.838.49.49,0,0,1-.875-.257c-.154-2.934.875-5.25,1.338-7.721-.926-1.6.1-4.787,2.11-4.015,2.471.978-2.11,5.919.926,6.537,3.191.669,4.529-5.559,2.522-7.566-2.882-2.934-8.338-.051-7.669,4.118.1.772.772,1.132.721,1.956a.7.7,0,0,1-.978.566c-1.287-.618-1.647-1.9-1.6-3.551a6.119,6.119,0,0,1,5.559-5.662c3.449-.412,6.691,1.287,7.154,4.529.515,3.6-1.544,7.566-5.25,7.257Z" transform="translate(-146.191 -345.982)" fill="#fff"/>
        </g>
      </g>
    </g>
    <g id="Group_260" data-name="Group 260" transform="translate(-93 -282)">
      <circle id="Ellipse_44-2" data-name="Ellipse 44" cx="14" cy="14" r="14" transform="translate(411 747)" fill="#1473e6"/>
      <g id="Group_259" data-name="Group 259" transform="translate(-500 215)">
        <g id="Group_83" data-name="Group 83" transform="translate(689.8 -4.3)">
          <g id="Group_82" data-name="Group 82" transform="translate(225.2 545.3)">
            <path id="Path_48" data-name="Path 48" d="M240.546,548.226c-4.419,0-4.478,4.419-4.478,4.478a4.118,4.118,0,0,0,4.478,4.419s3.583.179,3.941-2.627a.423.423,0,0,0-.418-.478h-1.254a.449.449,0,0,0-.418.3c-.119.358-.478.955-1.791.955a1.836,1.836,0,0,1-1.971-1.552.423.423,0,0,1,.418-.478h5.195a.408.408,0,0,0,.418-.418C244.607,551.689,244.427,548.226,240.546,548.226Zm-1.732,3.463c-.179,0-.3-.179-.239-.3a1.994,1.994,0,0,1,1.97-1.493,1.606,1.606,0,0,1,1.732,1.493c0,.119-.119.3-.239.3Zm-5.314-1.015c-.119-.06-.179-.239-.06-.3a2.013,2.013,0,0,0,1.075-1.971,2.963,2.963,0,0,0-3.284-3.105H225.5a.282.282,0,0,0-.3.3v10.987a.282.282,0,0,0,.3.3h5.732s3.7.12,3.7-3.4C234.933,553.421,235.053,551.212,233.5,550.674Zm-5.613-3.105a.257.257,0,0,1,.239-.239h3.165s.836,0,.836,1.194-.478,1.373-1.015,1.373h-2.926a.257.257,0,0,1-.239-.239v-2.09Zm3.224,7.225h-2.986a.257.257,0,0,1-.239-.239v-2.687a.257.257,0,0,1,.239-.239h3.165s1.254,0,1.194,1.612C232.485,554.675,231.589,554.794,231.112,554.794Zm6.927-9.076v1.015a.257.257,0,0,0,.239.239h4.359a.257.257,0,0,0,.239-.239v-1.015a.257.257,0,0,0-.239-.239h-4.419C238.1,545.539,238.038,545.6,238.038,545.718Z" transform="translate(-225.2 -545.3)" fill="#fff"/>
          </g>
        </g>
        <rect id="Rectangle_13" data-name="Rectangle 13" width="20" height="20" transform="translate(915 536)" fill="none" opacity="0.2"/>
      </g>
    </g>
  </g>
</svg>
