<svg xmlns="http://www.w3.org/2000/svg" width="20" height="20" viewBox="0 0 20 20">
    <defs>
        <style>
            .prefix__cls-2{fill:#fff;fill-rule:evenodd}
        </style>
    </defs>
    <g id="prefix__Group_152" data-name="Group 152" transform="translate(-935 -259)">
        <g id="prefix__Group_7" data-name="Group 7" transform="translate(873.941 43.8)">
            <g id="prefix__Group_2" data-name="Group 2" transform="translate(61.059 217.2)">
                <path id="prefix__Path_2" d="M80.213 219.071a7.072 7.072 0 01-1.931.543c.3-.06.784-.6.966-.845a3.164 3.164 0 00.664-1.147v-.122h-.121a10.668 10.668 0 01-2.293.905.222.222 0 01-.181-.06l-.181-.181a3.515 3.515 0 00-1.086-.664 4.176 4.176 0 00-1.69-.3 3.918 3.918 0 00-1.629.483 3.773 3.773 0 00-1.328 1.086 3.852 3.852 0 00-.784 1.569 4.932 4.932 0 00-.06 1.629c0 .121 0 .121-.06.121a12.43 12.43 0 01-7.905-4.043c-.121-.121-.121-.121-.241 0a4.126 4.126 0 00.664 4.767c.181.121.3.3.483.422a3.978 3.978 0 01-1.509-.422c-.121-.06-.121 0-.121.06v.483a4.185 4.185 0 002.474 3.259 4.164 4.164 0 01.483.181 4.82 4.82 0 01-1.509.06c-.121 0-.181.06-.121.121a4.172 4.172 0 003.138 2.655 1.027 1.027 0 01.422.06 4.727 4.727 0 01-2.172 1.147 7.489 7.489 0 01-3.259.422h-.241c-.06 0 0 .06.06.121.241.121.422.3.664.422a10.762 10.762 0 002.172.845 11.556 11.556 0 0011.285-2.655 11.959 11.959 0 003.138-8.629c0-.121.121-.181.241-.241a6.217 6.217 0 001.509-1.569.39.39 0 00.121-.3c-.002-.244-.002-.244-.062-.183z" data-name="Path 2" transform="translate(-61.059 -217.2)" style="fill:#fff"/>
            </g>
            <g id="prefix__Group_3" data-name="Group 3" transform="translate(66.756 232.89)"/>
            <g id="prefix__Group_4" data-name="Group 4" transform="translate(66.622 232.89)"/>
            <g id="prefix__Group_5" data-name="Group 5" transform="translate(67.42 232.923)">
                <path id="prefix__Path_5" d="M71.6 243.282c0-.06.362 0 0 0 0-.06.06 0 0 0z" class="prefix__cls-2" data-name="Path 5" transform="translate(-71.6 -243.256)"/>
            </g>
            <g id="prefix__Group_6" data-name="Group 6" transform="translate(74.118 217.2)"/>
        </g>
        <path id="prefix__Rectangle_5" d="M0 0H20V20H0z" data-name="Rectangle 5" transform="translate(935 259)" style="fill:none"/>
    </g>
</svg>
